# File created by Blade
# Date/Time:  Tue Apr 07 20:35:32 2015
# Frame Rate: 120.000 fps
#------------------------------------------------------
:FULLY-SPECIFIED
:DEGREES
1543
root 1.661857 34.518033 -4.474908 61.937531 -7.636968 -32.164362
Spine -25.998496 2.360059 19.290136
Head -17.267505 18.164550 8.699120
LeftShoulder -29.039772 42.215256 16.594053
LeftArm 50.427949 -54.698753 -82.006356
LeftForeArm 1.303878 -0.000000 6.803589
LeftHand 12.931557 -0.000000 14.716598
LeftHandThumb1 -26.253704 0.000000 33.147579
RightShoulder -16.237881 -24.661751 -14.114874
RightArm -10.835378 -7.338844 79.945090
RightForeArm 11.100415 -0.000000 -2.171348
RightHand 4.920500 0.000000 10.031304
RightHandThumb1 -24.326973 -0.000000 -32.862282
LeftUpLeg -52.412124 20.873570 20.535140
LeftLeg 0.985809 -0.000000 -0.000000
LeftFoot -4.431642 1.408923 -30.815644
LeftToeBase 6.153237 -0.000000 -0.000000
RightUpLeg 6.202967 -3.613726 -22.749426
RightLeg 117.365108 -0.000000 -0.000000
RightFoot 42.743625 -3.470255 -4.134210
RightToeBase 33.581716 -0.000000 -0.000000
1544
root 1.660560 34.520733 -4.489946 61.998414 -7.680217 -32.255279
Spine -26.009644 2.304543 19.211957
Head -17.191931 18.167492 8.910471
LeftShoulder -28.861825 42.172325 16.656447
LeftArm 50.599858 -54.665766 -81.942286
LeftForeArm 1.393699 -0.000000 7.182038
LeftHand 12.981192 -0.000000 14.696141
LeftHandThumb1 -26.253704 0.000000 33.147579
RightShoulder -16.196685 -24.780652 -14.045124
RightArm -10.823666 -7.781067 79.979212
RightForeArm 12.328478 -0.000000 -2.017432
RightHand 4.909721 -0.000000 10.610886
RightHandThumb1 -24.326973 -0.000000 -32.862282
LeftUpLeg -52.466075 21.110537 20.468904
LeftLeg 0.979801 -0.000000 -0.000000
LeftFoot -4.336189 1.090696 -31.389498
LeftToeBase 6.340352 -0.000000 -0.000000
RightUpLeg 6.086750 -3.607560 -22.686533
RightLeg 118.068191 -0.000000 -0.000000
RightFoot 42.755911 -3.329898 -4.109802
RightToeBase 33.406718 -0.000000 -0.000000
1545
root 1.661854 34.526038 -4.506564 62.068053 -7.747800 -32.305908
Spine -26.039168 2.209566 19.101640
Head -17.101879 18.166856 9.059166
LeftShoulder -28.704195 42.151439 16.691681
LeftArm 50.659483 -54.610984 -81.789542
LeftForeArm 1.469772 0.000000 7.622432
LeftHand 13.061714 -0.000000 14.924735
LeftHandThumb1 -26.253704 0.000000 33.147579
RightShoulder -16.106903 -24.884583 -13.997752
RightArm -10.882567 -7.833130 80.002834
RightForeArm 12.841724 -0.000000 -1.772183
RightHand 4.957923 -0.000000 11.034862
RightHandThumb1 -24.326973 -0.000000 -32.862282
LeftUpLeg -52.543574 21.319136 20.394885
LeftLeg 1.006963 -0.000000 -0.000000
LeftFoot -4.199057 0.734713 -31.974384
LeftToeBase 6.511930 -0.000000 -0.000000
RightUpLeg 5.982359 -3.570378 -22.688528
RightLeg 118.862222 -0.000000 -0.000000
RightFoot 42.726002 -3.156236 -4.144100
RightToeBase 33.180009 -0.000000 -0.000000
1546
root 1.662025 34.534236 -4.524406 62.144947 -7.815476 -32.355989
Spine -26.073750 2.135939 18.972090
Head -17.021305 18.162791 9.216072
LeftShoulder -28.527286 42.112539 16.779224
LeftArm 50.801742 -54.608890 -81.807651
LeftForeArm 1.548779 0.000000 8.099225
LeftHand 13.197560 0.000000 15.119066
LeftHandThumb1 -26.253704 0.000000 33.147579
RightShoulder -16.058194 -24.994523 -13.937666
RightArm -10.969106 -7.784882 80.061516
RightForeArm 13.009822 -0.000000 -1.480444
RightHand 5.071602 -0.000000 11.430936
RightHandThumb1 -24.326973 -0.000000 -32.862282
LeftUpLeg -52.620422 21.543012 20.339845
LeftLeg 1.036745 -0.000000 -0.000000
LeftFoot -3.999635 0.299495 -32.661516
LeftToeBase 6.762811 -0.000000 -0.000000
RightUpLeg 5.889939 -3.499260 -22.708813
RightLeg 119.722313 -0.000000 -0.000000
RightFoot 42.717152 -2.997945 -4.302959
RightToeBase 32.885080 -0.000000 -0.000000
1547
root 1.662725 34.544551 -4.543611 62.218117 -7.884615 -32.383141
Spine -26.098326 2.081988 18.815825
Head -16.983311 18.090376 9.305643
LeftShoulder -28.307549 42.090208 16.883780
LeftArm 50.862400 -54.590502 -81.792113
LeftForeArm 1.606235 0.000000 8.670158
LeftHand 13.231859 -0.000000 15.231613
LeftHandThumb1 -26.253704 0.000000 33.147579
RightShoulder -16.098609 -25.100087 -13.868977
RightArm -11.078501 -7.816104 80.205742
RightForeArm 13.014629 -0.000000 -1.155350
RightHand 5.202423 -0.000000 11.616478
RightHandThumb1 -24.326973 -0.000000 -32.862282
LeftUpLeg -52.707611 21.732818 20.286323
LeftLeg 1.085640 -0.000000 -0.000000
LeftFoot -4.049301 0.027021 -32.710867
LeftToeBase 8.053133 -0.000000 -0.000000
RightUpLeg 5.825560 -3.385025 -22.762168
RightLeg 120.606003 -0.000000 -0.000000
RightFoot 42.771234 -2.838160 -4.495730
RightToeBase 32.576166 -0.000000 -0.000000
1548
root 1.661202 34.555696 -4.563273 62.291770 -7.951935 -32.380908
Spine -26.144177 1.997205 18.639399
Head -16.928194 18.052718 9.409792
LeftShoulder -28.182699 42.130504 16.935469
LeftArm 51.032012 -54.516729 -81.868119
LeftForeArm 1.689245 -0.000000 9.279822
LeftHand 13.183883 -0.000000 15.432889
LeftHandThumb1 -26.253704 0.000000 33.147579
RightShoulder -16.159207 -25.206617 -13.817773
RightArm -11.201391 -7.978728 80.453913
RightForeArm 13.206826 -0.000000 -0.864781
RightHand 5.354353 0.000000 11.723562
RightHandThumb1 -24.326973 -0.000000 -32.862282
LeftUpLeg -52.781567 21.868467 20.300598
LeftLeg 1.129723 -0.000000 -0.000000
LeftFoot -3.781048 -0.305374 -33.254763
LeftToeBase 8.632103 -0.000000 -0.000000
RightUpLeg 5.801822 -3.200491 -22.840836
RightLeg 121.481028 -0.000000 -0.000000
RightFoot 42.875231 -2.610002 -4.664388
RightToeBase 32.589674 -0.000000 -0.000000
1549
root 1.661835 34.565609 -4.585713 62.327802 -8.038691 -32.390192
Spine -26.116052 1.918694 18.460702
Head -16.931331 17.999905 9.418941
LeftShoulder -28.026038 42.111309 17.042195
LeftArm 50.962362 -54.394241 -81.763617
LeftForeArm 1.613909 -0.000000 9.876395
LeftHand 13.363881 -0.000000 15.584546
LeftHandThumb1 -26.253704 0.000000 33.147579
RightShoulder -16.252885 -25.368934 -13.770341
RightArm -11.273160 -8.349885 80.796660
RightForeArm 13.741564 -0.000000 -0.559995
RightHand 5.576123 0.000000 11.770931
RightHandThumb1 -24.326973 -0.000000 -32.862282
LeftUpLeg -52.823914 21.989129 20.316576
LeftLeg 1.184672 -0.000000 -0.000000
LeftFoot -3.457405 -0.671142 -33.767951
LeftToeBase 8.689008 -0.000000 -0.000000
RightUpLeg 5.829805 -2.925052 -22.962817
RightLeg 122.393538 -0.000000 -0.000000
RightFoot 42.940376 -2.228905 -4.976606
RightToeBase 32.629940 -0.000000 -0.000000
1550
root 1.664524 34.576416 -4.608652 62.386258 -8.118038 -32.374312
Spine -26.120285 1.796947 18.300949
Head -16.922308 17.968791 9.427659
LeftShoulder -28.016611 42.170792 17.028750
LeftArm 51.107146 -54.277029 -81.856967
LeftForeArm 1.716935 -0.000000 10.497585
LeftHand 13.299340 -0.000000 15.671165
LeftHandThumb1 -26.253704 0.000000 33.147579
RightShoulder -16.357949 -25.583801 -13.725696
RightArm -11.334056 -9.116403 81.230098
RightForeArm 14.877738 -0.000000 -0.219133
RightHand 5.878706 0.000000 12.215999
RightHandThumb1 -24.326973 -0.000000 -32.862282
LeftUpLeg -52.920285 22.062993 20.336956
LeftLeg 1.278136 -0.000000 -0.000000
LeftFoot -3.048989 -1.018157 -34.067037
LeftToeBase 8.557147 -0.000000 -0.000000
RightUpLeg 5.846788 -2.623318 -23.092341
RightLeg 123.282029 -0.000000 -0.000000
RightFoot 43.122192 -1.898722 -5.252502
RightToeBase 32.738789 -0.000000 -0.000000
1551
root 1.665680 34.588828 -4.632021 62.424630 -8.145110 -32.373547
Spine -26.079379 1.665172 18.216182
Head -16.969464 17.886462 9.373596
LeftShoulder -27.989482 42.143289 17.010920
LeftArm 51.221187 -54.235710 -81.925853
LeftForeArm 1.909006 -0.000000 10.993134
LeftHand 13.397676 -0.000000 15.575845
LeftHandThumb1 -26.253704 0.000000 33.147579
RightShoulder -16.488159 -25.857558 -13.659294
RightArm -11.342619 -9.289596 81.519712
RightForeArm 15.492352 -0.000000 0.193957
RightHand 6.371264 -0.000000 12.343303
RightHandThumb1 -24.326973 -0.000000 -32.862282
LeftUpLeg -52.977010 22.033450 20.521858
LeftLeg 1.400676 -0.000000 -0.000000
LeftFoot -2.680688 -1.257465 -34.215141
LeftToeBase 8.861061 -0.000000 -0.000000
RightUpLeg 5.924814 -2.202980 -23.151407
RightLeg 124.274615 -0.000000 -0.000000
RightFoot 42.851625 -1.203143 -5.518252
RightToeBase 32.518781 -0.000000 -0.000000
1552
root 1.665728 34.601582 -4.656677 62.480095 -8.133100 -32.375344
Spine -26.088460 1.470456 18.204552
Head -16.909610 17.872860 9.325489
LeftShoulder -27.992756 42.174347 16.967324
LeftArm 51.034841 -54.110731 -81.708346
LeftForeArm 1.898058 -0.000000 11.526407
LeftHand 13.513779 -0.000000 15.512234
LeftHandThumb1 -26.253704 0.000000 33.147579
RightShoulder -16.525240 -26.203293 -13.640520
RightArm -11.392095 -9.474487 81.838886
RightForeArm 16.106605 -0.000000 0.824379
RightHand 6.257017 -0.000000 13.086557
RightHandThumb1 -24.326973 -0.000000 -32.862282
LeftUpLeg -53.034814 21.908185 20.858276
LeftLeg 1.556866 -0.000000 -0.000000
LeftFoot -2.397507 -1.392242 -34.291719
LeftToeBase 8.169292 -0.000000 -0.000000
RightUpLeg 6.064337 -1.870532 -23.183894
RightLeg 125.086155 -0.000000 -0.000000
RightFoot 42.910403 -0.675598 -6.058731
RightToeBase 32.837209 -0.000000 -0.000000
1553
root 1.660011 34.613378 -4.681963 62.502129 -8.116471 -32.401096
Spine -26.039284 1.289550 18.184665
Head -16.898452 17.859646 9.289228
LeftShoulder -27.953443 42.144958 16.940039
LeftArm 50.458197 -53.919701 -81.063218
LeftForeArm 1.854665 -0.000000 12.107251
LeftHand 13.507495 -0.000000 15.511782
LeftHandThumb1 -26.253704 0.000000 33.147579
RightShoulder -16.619041 -26.579337 -13.561123
RightArm -11.460787 -9.785308 82.122728
RightForeArm 16.995250 -0.000000 1.520002
RightHand 6.029598 -0.000000 14.130785
RightHandThumb1 -24.326973 -0.000000 -32.862282
LeftUpLeg -53.050793 21.744837 21.257102
LeftLeg 1.730314 -0.000000 -0.000000
LeftFoot -1.834521 -1.506101 -34.814674
LeftToeBase 6.678122 -0.000000 -0.000000
RightUpLeg 6.199834 -1.486663 -23.182015
RightLeg 125.853251 -0.000000 -0.000000
RightFoot 43.147317 -0.331877 -6.465404
RightToeBase 32.888466 -0.000000 -0.000000
1554
root 1.656753 34.629464 -4.710074 62.567534 -8.086523 -32.422750
Spine -26.024338 1.098904 18.180126
Head -16.910832 17.854253 9.231989
LeftShoulder -27.926236 42.084257 16.887256
LeftArm 49.754414 -53.720704 -80.271435
LeftForeArm 1.718618 -0.000000 12.652193
LeftHand 13.462290 -0.000000 15.812945
LeftHandThumb1 -26.253704 0.000000 33.147579
RightShoulder -16.747754 -26.977696 -13.476341
RightArm -11.513569 -10.344016 82.399859
RightForeArm 18.376705 0.000000 2.262472
RightHand 5.847383 -0.000000 15.362749
RightHandThumb1 -24.326973 -0.000000 -32.862282
LeftUpLeg -53.105063 21.524232 21.755351
LeftLeg 1.958883 -0.000000 -0.000000
LeftFoot -1.877940 -1.394669 -34.119600
LeftToeBase 7.954459 -0.000000 -0.000000
RightUpLeg 6.290258 -1.029339 -23.150450
RightLeg 126.654114 -0.000000 -0.000000
RightFoot 43.237248 0.275883 -6.830153
RightToeBase 32.828505 -0.000000 -0.000000
1555
root 1.657513 34.644691 -4.738116 62.622310 -8.039156 -32.466055
Spine -25.986434 0.903131 18.222683
Head -16.907111 17.872270 9.220936
LeftShoulder -28.034706 42.183595 16.754964
LeftArm 50.491052 -54.017287 -81.113070
LeftForeArm 2.556069 -0.000000 12.973922
LeftHand 13.614282 -0.000000 15.835383
LeftHandThumb1 -26.253704 0.000000 33.147579
RightShoulder -16.827900 -27.383411 -13.436769
RightArm -11.610346 -10.805029 82.608692
RightForeArm 20.054545 -0.000000 3.097996
RightHand 5.470647 -0.000000 16.941483
RightHandThumb1 -24.326973 -0.000000 -32.862282
LeftUpLeg -53.139202 21.283191 22.346979
LeftLeg 2.210005 -0.000000 -0.000000
LeftFoot -1.367556 -1.459502 -34.676105
LeftToeBase 6.638500 -0.000000 -0.000000
RightUpLeg 6.395654 -0.492318 -23.065427
RightLeg 127.393244 -0.000000 -0.000000
RightFoot 43.372995 1.044153 -7.209588
RightToeBase 32.993678 -0.000000 -0.000000
